<svg width="18" height="18" viewBox="0 0 18 18" fill="none" xmlns="http://www.w3.org/2000/svg">
<path d="M9 16.5C4.85775 16.5 1.5 13.1423 1.5 9C1.5 4.85775 4.85775 1.5 9 1.5C13.1423 1.5 16.5 4.85775 16.5 9C16.5 13.1423 13.1423 16.5 9 16.5ZM7.2825 14.7502C6.54256 13.1807 6.1139 11.4827 6.02025 9.75H3.0465C3.19244 10.9042 3.67044 11.9911 4.42243 12.8788C5.17441 13.7664 6.16801 14.4166 7.2825 14.7502ZM7.5225 9.75C7.63575 11.5793 8.1585 13.2975 9 14.814C9.86424 13.2574 10.3691 11.5271 10.4775 9.75H7.5225ZM14.9535 9.75H11.9797C11.8861 11.4827 11.4574 13.1807 10.7175 14.7502C11.832 14.4166 12.8256 13.7664 13.5776 12.8788C14.3296 11.9911 14.8076 10.9042 14.9535 9.75ZM3.0465 8.25H6.02025C6.1139 6.51734 6.54256 4.81926 7.2825 3.24975C6.16801 3.58341 5.17441 4.23356 4.42243 5.12122C3.67044 6.00888 3.19244 7.09583 3.0465 8.25ZM7.52325 8.25H10.4767C10.3686 6.47295 9.86398 4.74265 9 3.186C8.13576 4.74259 7.63092 6.47289 7.5225 8.25H7.52325ZM10.7175 3.24975C11.4574 4.81926 11.8861 6.51734 11.9797 8.25H14.9535C14.8076 7.09583 14.3296 6.00888 13.5776 5.12122C12.8256 4.23356 11.832 3.58341 10.7175 3.24975Z" fill="#7998ad"/>
</svg>
